<mxfile host="app.diagrams.net" modified="2023-01-30T01:41:46.615Z" agent="5.0 (Windows NT 10.0; Win64; x64) AppleWebKit/537.36 (KHTML, like Gecko) Chrome/108.0.0.0 Safari/537.36" etag="qfcnRvTb2utDygEi7oWl" version="20.8.13" type="github">
  <diagram name="第 1 页" id="EPr6NyxI2XcvZ6Pa8mlO">
    <mxGraphModel dx="941" dy="461" grid="1" gridSize="10" guides="1" tooltips="1" connect="1" arrows="1" fold="1" page="1" pageScale="1" pageWidth="827" pageHeight="1169" math="0" shadow="0">
      <root>
        <mxCell id="0" />
        <mxCell id="1" parent="0" />
        <mxCell id="266Uv3cQ_5N56ihemPXh-1" value="主端" style="shape=umlLifeline;perimeter=lifelinePerimeter;container=1;collapsible=0;recursiveResize=0;rounded=0;shadow=0;strokeWidth=1;fillColor=#d5e8d4;strokeColor=#82b366;" vertex="1" parent="1">
          <mxGeometry x="100" y="80" width="100" height="390" as="geometry" />
        </mxCell>
        <mxCell id="266Uv3cQ_5N56ihemPXh-2" value="" style="rounded=0;whiteSpace=wrap;html=1;fillColor=#eeeeee;strokeColor=#36393d;" vertex="1" parent="266Uv3cQ_5N56ihemPXh-1">
          <mxGeometry x="40" y="110" width="20" height="20" as="geometry" />
        </mxCell>
        <mxCell id="266Uv3cQ_5N56ihemPXh-4" value="" style="rounded=0;whiteSpace=wrap;html=1;fillColor=#eeeeee;strokeColor=#36393d;" vertex="1" parent="266Uv3cQ_5N56ihemPXh-1">
          <mxGeometry x="40" y="200" width="20" height="20" as="geometry" />
        </mxCell>
        <mxCell id="266Uv3cQ_5N56ihemPXh-5" value="" style="endArrow=classic;html=1;rounded=0;fontSize=11;entryX=0;entryY=0.25;entryDx=0;entryDy=0;" edge="1" parent="266Uv3cQ_5N56ihemPXh-1" target="266Uv3cQ_5N56ihemPXh-13">
          <mxGeometry relative="1" as="geometry">
            <mxPoint x="60" y="210" as="sourcePoint" />
            <mxPoint x="160" y="210" as="targetPoint" />
          </mxGeometry>
        </mxCell>
        <mxCell id="266Uv3cQ_5N56ihemPXh-6" value="InputData" style="edgeLabel;resizable=0;html=1;align=center;verticalAlign=middle;fontSize=11;" connectable="0" vertex="1" parent="266Uv3cQ_5N56ihemPXh-5">
          <mxGeometry relative="1" as="geometry" />
        </mxCell>
        <mxCell id="266Uv3cQ_5N56ihemPXh-41" value="&lt;font style=&quot;font-size: 11px;&quot;&gt;PerformTrace&lt;/font&gt;" style="text;html=1;strokeColor=none;fillColor=none;align=center;verticalAlign=middle;whiteSpace=wrap;rounded=0;fontSize=11;" vertex="1" parent="266Uv3cQ_5N56ihemPXh-1">
          <mxGeometry x="30" y="90" width="40" height="20" as="geometry" />
        </mxCell>
        <mxCell id="266Uv3cQ_5N56ihemPXh-54" value="" style="rounded=0;whiteSpace=wrap;html=1;fillColor=#eeeeee;strokeColor=#36393d;" vertex="1" parent="266Uv3cQ_5N56ihemPXh-1">
          <mxGeometry x="40" y="330" width="20" height="20" as="geometry" />
        </mxCell>
        <mxCell id="266Uv3cQ_5N56ihemPXh-58" value="" style="endArrow=classic;html=1;rounded=0;entryX=0;entryY=0.25;entryDx=0;entryDy=0;" edge="1" parent="266Uv3cQ_5N56ihemPXh-1" target="266Uv3cQ_5N56ihemPXh-55">
          <mxGeometry relative="1" as="geometry">
            <mxPoint x="60" y="340" as="sourcePoint" />
            <mxPoint x="160" y="340" as="targetPoint" />
          </mxGeometry>
        </mxCell>
        <mxCell id="266Uv3cQ_5N56ihemPXh-59" value="RPC" style="edgeLabel;resizable=0;html=1;align=center;verticalAlign=middle;" connectable="0" vertex="1" parent="266Uv3cQ_5N56ihemPXh-58">
          <mxGeometry relative="1" as="geometry" />
        </mxCell>
        <mxCell id="266Uv3cQ_5N56ihemPXh-7" value="服务器" style="shape=umlLifeline;perimeter=lifelinePerimeter;container=1;collapsible=0;recursiveResize=0;rounded=0;shadow=0;strokeWidth=1;fillColor=#dae8fc;strokeColor=#6c8ebf;" vertex="1" parent="1">
          <mxGeometry x="280" y="80" width="100" height="390" as="geometry" />
        </mxCell>
        <mxCell id="266Uv3cQ_5N56ihemPXh-8" value="" style="rounded=0;whiteSpace=wrap;html=1;fillColor=#eeeeee;strokeColor=#36393d;" vertex="1" parent="266Uv3cQ_5N56ihemPXh-7">
          <mxGeometry x="40" y="50" width="20" height="20" as="geometry" />
        </mxCell>
        <mxCell id="266Uv3cQ_5N56ihemPXh-9" value="" style="rounded=0;whiteSpace=wrap;html=1;fillColor=#eeeeee;strokeColor=#36393d;" vertex="1" parent="266Uv3cQ_5N56ihemPXh-7">
          <mxGeometry x="40" y="110" width="20" height="20" as="geometry" />
        </mxCell>
        <mxCell id="266Uv3cQ_5N56ihemPXh-13" value="" style="rounded=0;whiteSpace=wrap;html=1;fillColor=#eeeeee;strokeColor=#36393d;" vertex="1" parent="266Uv3cQ_5N56ihemPXh-7">
          <mxGeometry x="40" y="230" width="20" height="20" as="geometry" />
        </mxCell>
        <mxCell id="266Uv3cQ_5N56ihemPXh-15" value="&lt;font style=&quot;font-size: 11px;&quot;&gt;PerformTrace&lt;/font&gt;" style="text;html=1;strokeColor=none;fillColor=none;align=center;verticalAlign=middle;whiteSpace=wrap;rounded=0;fontSize=11;" vertex="1" parent="266Uv3cQ_5N56ihemPXh-7">
          <mxGeometry x="40" y="90" width="40" height="20" as="geometry" />
        </mxCell>
        <mxCell id="266Uv3cQ_5N56ihemPXh-17" value="" style="endArrow=classic;html=1;rounded=0;fontSize=11;entryX=0;entryY=0.5;entryDx=0;entryDy=0;" edge="1" parent="266Uv3cQ_5N56ihemPXh-7" target="266Uv3cQ_5N56ihemPXh-23">
          <mxGeometry relative="1" as="geometry">
            <mxPoint x="60" y="250.41" as="sourcePoint" />
            <mxPoint x="160" y="250.41" as="targetPoint" />
          </mxGeometry>
        </mxCell>
        <mxCell id="266Uv3cQ_5N56ihemPXh-18" value="InputData" style="edgeLabel;resizable=0;html=1;align=center;verticalAlign=middle;fontSize=11;" connectable="0" vertex="1" parent="266Uv3cQ_5N56ihemPXh-17">
          <mxGeometry relative="1" as="geometry" />
        </mxCell>
        <mxCell id="266Uv3cQ_5N56ihemPXh-19" value="" style="endArrow=classic;html=1;rounded=0;fontSize=11;" edge="1" parent="266Uv3cQ_5N56ihemPXh-7">
          <mxGeometry relative="1" as="geometry">
            <mxPoint x="60" y="60" as="sourcePoint" />
            <mxPoint x="220" y="60" as="targetPoint" />
            <Array as="points">
              <mxPoint x="200" y="60" />
            </Array>
          </mxGeometry>
        </mxCell>
        <mxCell id="266Uv3cQ_5N56ihemPXh-20" value="RPC" style="edgeLabel;resizable=0;html=1;align=center;verticalAlign=middle;fontSize=11;" connectable="0" vertex="1" parent="266Uv3cQ_5N56ihemPXh-19">
          <mxGeometry relative="1" as="geometry" />
        </mxCell>
        <mxCell id="266Uv3cQ_5N56ihemPXh-55" value="" style="rounded=0;whiteSpace=wrap;html=1;fillColor=#eeeeee;strokeColor=#36393d;" vertex="1" parent="266Uv3cQ_5N56ihemPXh-7">
          <mxGeometry x="40" y="360" width="20" height="20" as="geometry" />
        </mxCell>
        <mxCell id="266Uv3cQ_5N56ihemPXh-21" value="从端" style="shape=umlLifeline;perimeter=lifelinePerimeter;container=1;collapsible=0;recursiveResize=0;rounded=0;shadow=0;strokeWidth=1;fillColor=#d5e8d4;strokeColor=#82b366;" vertex="1" parent="1">
          <mxGeometry x="460" y="80" width="100" height="390" as="geometry" />
        </mxCell>
        <mxCell id="266Uv3cQ_5N56ihemPXh-22" value="" style="rounded=0;whiteSpace=wrap;html=1;fillColor=#eeeeee;strokeColor=#36393d;" vertex="1" parent="266Uv3cQ_5N56ihemPXh-21">
          <mxGeometry x="40" y="110" width="20" height="20" as="geometry" />
        </mxCell>
        <mxCell id="266Uv3cQ_5N56ihemPXh-23" value="" style="rounded=0;whiteSpace=wrap;html=1;fillColor=#eeeeee;strokeColor=#36393d;" vertex="1" parent="266Uv3cQ_5N56ihemPXh-21">
          <mxGeometry x="40" y="250.41" width="20" height="20" as="geometry" />
        </mxCell>
        <mxCell id="266Uv3cQ_5N56ihemPXh-24" value="" style="rounded=0;whiteSpace=wrap;html=1;fillColor=#eeeeee;strokeColor=#36393d;" vertex="1" parent="266Uv3cQ_5N56ihemPXh-21">
          <mxGeometry x="40" y="50" width="20" height="20" as="geometry" />
        </mxCell>
        <mxCell id="266Uv3cQ_5N56ihemPXh-40" value="&lt;font style=&quot;font-size: 11px;&quot;&gt;PerformTrace&lt;/font&gt;" style="text;html=1;strokeColor=none;fillColor=none;align=center;verticalAlign=middle;whiteSpace=wrap;rounded=0;fontSize=11;" vertex="1" parent="266Uv3cQ_5N56ihemPXh-21">
          <mxGeometry x="30" y="90" width="40" height="20" as="geometry" />
        </mxCell>
        <mxCell id="266Uv3cQ_5N56ihemPXh-42" value="" style="endArrow=none;dashed=1;html=1;rounded=0;fontSize=11;" edge="1" parent="266Uv3cQ_5N56ihemPXh-21">
          <mxGeometry width="50" height="50" relative="1" as="geometry">
            <mxPoint x="-430" y="300.00000000000006" as="sourcePoint" />
            <mxPoint x="150" y="300.00000000000006" as="targetPoint" />
          </mxGeometry>
        </mxCell>
        <mxCell id="266Uv3cQ_5N56ihemPXh-56" value="" style="rounded=0;whiteSpace=wrap;html=1;fillColor=#eeeeee;strokeColor=#36393d;" vertex="1" parent="266Uv3cQ_5N56ihemPXh-21">
          <mxGeometry x="40" y="370" width="20" height="20" as="geometry" />
        </mxCell>
        <mxCell id="266Uv3cQ_5N56ihemPXh-25" value="" style="verticalAlign=bottom;endArrow=none;shadow=0;strokeWidth=1;exitX=0.498;exitY=0.218;exitDx=0;exitDy=0;exitPerimeter=0;entryX=0.5;entryY=0.4;entryDx=0;entryDy=0;entryPerimeter=0;" edge="1" parent="1" source="266Uv3cQ_5N56ihemPXh-1" target="266Uv3cQ_5N56ihemPXh-26">
          <mxGeometry x="-1" y="157" relative="1" as="geometry">
            <mxPoint x="149.80000000000018" y="145.39999999999998" as="sourcePoint" />
            <mxPoint x="330" y="199.9999999999999" as="targetPoint" />
            <Array as="points" />
            <mxPoint x="-125" y="62" as="offset" />
          </mxGeometry>
        </mxCell>
        <mxCell id="266Uv3cQ_5N56ihemPXh-26" value="" style="rounded=0;whiteSpace=wrap;html=1;fillColor=#eeeeee;strokeColor=#36393d;" vertex="1" parent="1">
          <mxGeometry x="140" y="130" width="20" height="20" as="geometry" />
        </mxCell>
        <mxCell id="266Uv3cQ_5N56ihemPXh-27" value="TargetActorReplicated方案" style="text;strokeColor=none;align=center;fillColor=none;html=1;verticalAlign=middle;whiteSpace=wrap;rounded=0;" vertex="1" parent="1">
          <mxGeometry x="160" y="30" width="330" height="30" as="geometry" />
        </mxCell>
        <mxCell id="266Uv3cQ_5N56ihemPXh-28" value="&lt;font style=&quot;font-size: 11px;&quot;&gt;StartTargeting&lt;/font&gt;" style="text;strokeColor=none;align=center;fillColor=none;html=1;verticalAlign=middle;whiteSpace=wrap;rounded=0;fontSize=8;" vertex="1" parent="1">
          <mxGeometry x="30" y="130" width="90" height="15" as="geometry" />
        </mxCell>
        <mxCell id="266Uv3cQ_5N56ihemPXh-29" value="" style="endArrow=none;dashed=1;html=1;rounded=0;fontSize=11;" edge="1" parent="1">
          <mxGeometry width="50" height="50" relative="1" as="geometry">
            <mxPoint x="30" y="160" as="sourcePoint" />
            <mxPoint x="610" y="160" as="targetPoint" />
          </mxGeometry>
        </mxCell>
        <mxCell id="266Uv3cQ_5N56ihemPXh-34" value="&lt;div style=&quot;text-align: center;&quot;&gt;&lt;span style=&quot;background-color: initial;&quot;&gt;Update Chacter Info&lt;/span&gt;&lt;/div&gt;" style="text;whiteSpace=wrap;html=1;fontSize=11;" vertex="1" parent="1">
          <mxGeometry y="190" width="110" height="20" as="geometry" />
        </mxCell>
        <mxCell id="266Uv3cQ_5N56ihemPXh-36" value="&lt;div style=&quot;text-align: center;&quot;&gt;Update Player Input&lt;/div&gt;" style="text;whiteSpace=wrap;html=1;fontSize=11;" vertex="1" parent="1">
          <mxGeometry y="300" width="130" height="20" as="geometry" />
        </mxCell>
        <mxCell id="266Uv3cQ_5N56ihemPXh-37" value="" style="rounded=0;whiteSpace=wrap;html=1;fillColor=#eeeeee;strokeColor=#36393d;" vertex="1" parent="1">
          <mxGeometry x="140" y="340.41" width="20" height="20" as="geometry" />
        </mxCell>
        <mxCell id="266Uv3cQ_5N56ihemPXh-38" value="" style="endArrow=classic;html=1;rounded=0;fontSize=11;entryX=1;entryY=0.5;entryDx=0;entryDy=0;" edge="1" parent="1" target="266Uv3cQ_5N56ihemPXh-37">
          <mxGeometry relative="1" as="geometry">
            <mxPoint x="320" y="331.5864705882353" as="sourcePoint" />
            <mxPoint x="480" y="435.41" as="targetPoint" />
          </mxGeometry>
        </mxCell>
        <mxCell id="266Uv3cQ_5N56ihemPXh-39" value="InputData" style="edgeLabel;resizable=0;html=1;align=center;verticalAlign=middle;fontSize=11;" connectable="0" vertex="1" parent="266Uv3cQ_5N56ihemPXh-38">
          <mxGeometry relative="1" as="geometry">
            <mxPoint x="-10" y="-1" as="offset" />
          </mxGeometry>
        </mxCell>
        <mxCell id="266Uv3cQ_5N56ihemPXh-35" value="" style="endArrow=none;dashed=1;html=1;rounded=0;fontSize=11;" edge="1" parent="1">
          <mxGeometry width="50" height="50" relative="1" as="geometry">
            <mxPoint x="30" y="244.71" as="sourcePoint" />
            <mxPoint x="610" y="244.71" as="targetPoint" />
          </mxGeometry>
        </mxCell>
        <mxCell id="266Uv3cQ_5N56ihemPXh-43" value="&lt;div style=&quot;text-align: center;&quot;&gt;Confirm/Cancel&lt;/div&gt;" style="text;whiteSpace=wrap;html=1;fontSize=11;" vertex="1" parent="1">
          <mxGeometry x="10" y="410" width="130" height="20" as="geometry" />
        </mxCell>
        <mxCell id="266Uv3cQ_5N56ihemPXh-57" value="" style="rounded=0;whiteSpace=wrap;html=1;fillColor=#eeeeee;strokeColor=#36393d;" vertex="1" parent="1">
          <mxGeometry x="140" y="470" width="20" height="20" as="geometry" />
        </mxCell>
        <mxCell id="266Uv3cQ_5N56ihemPXh-61" value="" style="endArrow=classic;html=1;rounded=0;entryX=-0.171;entryY=0.555;entryDx=0;entryDy=0;entryPerimeter=0;exitX=1;exitY=0.5;exitDx=0;exitDy=0;" edge="1" parent="1" source="266Uv3cQ_5N56ihemPXh-55" target="266Uv3cQ_5N56ihemPXh-56">
          <mxGeometry relative="1" as="geometry">
            <mxPoint x="340" y="460" as="sourcePoint" />
            <mxPoint x="440" y="460" as="targetPoint" />
          </mxGeometry>
        </mxCell>
        <mxCell id="266Uv3cQ_5N56ihemPXh-62" value="RPC" style="edgeLabel;resizable=0;html=1;align=center;verticalAlign=middle;" connectable="0" vertex="1" parent="266Uv3cQ_5N56ihemPXh-61">
          <mxGeometry relative="1" as="geometry" />
        </mxCell>
        <mxCell id="266Uv3cQ_5N56ihemPXh-63" value="" style="endArrow=classic;html=1;rounded=0;entryX=1;entryY=0.5;entryDx=0;entryDy=0;exitX=0;exitY=1;exitDx=0;exitDy=0;" edge="1" parent="1" source="266Uv3cQ_5N56ihemPXh-55" target="266Uv3cQ_5N56ihemPXh-57">
          <mxGeometry relative="1" as="geometry">
            <mxPoint x="300" y="470" as="sourcePoint" />
            <mxPoint x="400" y="470" as="targetPoint" />
          </mxGeometry>
        </mxCell>
        <mxCell id="266Uv3cQ_5N56ihemPXh-64" value="RPC" style="edgeLabel;resizable=0;html=1;align=center;verticalAlign=middle;" connectable="0" vertex="1" parent="266Uv3cQ_5N56ihemPXh-63">
          <mxGeometry relative="1" as="geometry" />
        </mxCell>
      </root>
    </mxGraphModel>
  </diagram>
</mxfile>
